<?xml version="1.0" encoding="UTF-8" standalone="no"?>
<!DOCTYPE svg PUBLIC "-//W3C//DTD SVG 1.1//EN" "http://www.w3.org/Graphics/SVG/1.1/DTD/svg11.dtd">
<svg xmlns="http://www.w3.org/2000/svg" version="1.1" viewBox="380 80 610 610" width="610" height="610">
<path d="M 756.75 105.36 C 809.12 119.89 857.09 150.23 893.34 190.65 C 917.07 217.27 935.97 248.33 948.42 281.76 C 960.22 313.11 966.96 346.44 966.84 380.00 C 968.07 437.16 950.74 494.70 919.49 542.46 C 887.99 590.46 841.57 628.78 788.54 650.76 C 757.45 663.38 723.63 671.27 690.01 671.86 C 683.64 672.38 677.36 672.22 671.00 671.78 C 656.90 671.50 642.82 669.74 629.00 667.00 C 581.03 657.52 535.43 635.57 498.26 603.80 C 474.02 583.58 453.67 558.73 437.36 531.77 C 422.75 507.22 412.20 480.55 404.99 452.94 C 394.32 410.78 393.79 365.98 402.73 323.45 C 410.55 288.48 424.21 254.95 443.97 225.00 C 459.17 201.91 477.63 180.60 498.91 162.90 C 526.09 140.04 557.58 121.71 591.23 110.23 C 644.36 92.19 702.66 90.31 756.75 105.36 Z" fill="#383632" />
<path d="M 679.00 122.19 C 734.45 121.10 790.15 139.24 834.54 172.45 C 849.75 183.71 863.73 196.57 876.24 210.76 C 905.39 244.06 925.72 284.74 935.23 327.94 C 939.86 350.82 942.34 374.66 940.79 398.00 C 940.58 409.25 938.79 420.65 936.90 431.79 C 931.35 461.23 920.77 489.81 905.73 515.72 C 887.06 548.12 861.33 576.17 831.00 597.99 C 789.95 627.33 740.47 644.36 689.99 645.86 C 643.60 647.64 596.53 635.69 556.13 612.91 C 524.86 595.21 496.82 570.51 475.13 541.88 C 445.13 501.92 426.56 453.36 422.90 403.48 C 421.21 376.91 423.12 350.19 429.10 324.23 C 435.86 295.92 447.12 268.36 462.78 243.78 C 475.67 223.03 491.76 204.21 509.98 187.96 C 533.33 166.99 560.60 150.01 589.99 138.93 C 618.35 128.04 648.62 122.34 679.00 122.19 Z" fill="#fe5e5f" />
<path d="M 702.00 139.06 C 730.29 141.43 758.24 148.87 783.90 161.04 C 812.61 174.53 838.46 193.73 859.92 217.08 C 877.47 236.00 891.75 258.04 902.48 281.49 C 919.76 319.38 926.84 361.48 923.78 402.97 C 921.15 438.89 910.42 474.24 892.71 505.60 C 875.65 535.92 852.03 562.43 824.02 583.05 C 782.82 613.23 732.17 630.26 681.00 629.68 C 652.93 629.98 624.53 624.35 598.21 614.74 C 579.23 607.55 561.18 598.03 544.48 586.51 C 521.65 570.50 501.37 550.57 485.11 527.91 C 458.10 490.36 442.05 445.15 439.43 398.97 C 439.01 383.73 438.85 368.12 441.02 353.00 C 444.88 321.36 454.81 290.48 470.56 262.74 C 496.70 215.58 539.23 177.91 588.84 156.93 C 624.43 141.91 663.52 135.93 702.00 139.06 Z" fill="#383632" />
<path d="M 710.15 188.99 C 735.36 194.21 758.74 206.74 775.82 226.16 C 787.24 239.07 795.15 254.92 798.60 271.80 C 802.84 291.62 800.66 312.65 795.96 332.19 C 789.43 326.03 781.31 319.04 772.00 318.19 C 766.88 317.55 763.91 321.45 760.53 324.54 C 748.52 336.50 736.40 347.81 721.44 356.06 C 737.86 352.64 750.06 343.14 762.37 332.36 C 765.07 330.08 767.70 327.14 770.90 325.61 C 774.38 325.57 777.98 327.35 780.87 329.15 C 789.95 334.91 797.45 342.82 803.04 351.98 C 805.37 356.02 807.66 360.22 806.34 365.04 C 804.64 371.47 799.46 377.33 795.10 382.20 C 798.39 386.36 801.77 390.06 803.47 395.20 C 805.59 401.31 804.12 408.44 800.61 413.75 C 799.81 415.35 797.53 415.09 796.00 415.45 C 786.63 416.53 777.48 418.30 768.23 420.11 C 758.57 422.10 748.90 424.36 739.97 428.66 C 736.58 420.13 731.84 412.44 725.55 405.73 C 742.57 403.78 760.02 401.13 774.71 391.70 C 781.65 387.26 787.79 381.69 789.10 373.12 C 790.61 362.40 788.13 350.91 784.04 340.98 C 767.79 343.57 754.57 354.16 741.84 363.82 C 733.43 370.27 724.52 376.31 714.99 380.98 C 712.48 382.13 709.77 383.42 707.01 383.78 C 704.79 383.31 702.82 381.30 700.94 380.06 C 694.62 375.42 688.11 371.69 679.96 372.26 C 671.20 372.92 664.85 378.27 658.03 383.11 C 656.61 384.37 654.74 383.34 653.17 382.91 C 643.24 379.01 633.88 372.96 625.23 366.76 C 615.91 360.06 607.72 352.81 597.57 347.42 C 591.97 344.32 585.96 342.34 579.78 340.75 C 576.54 348.13 574.46 355.92 574.17 364.00 C 574.03 369.36 573.92 374.62 576.49 379.48 C 580.11 386.52 587.36 391.25 594.18 394.81 C 607.38 401.49 623.34 404.11 637.91 405.82 C 631.43 412.24 626.58 420.06 623.33 428.56 C 615.01 424.47 605.49 422.32 596.49 420.23 C 587.05 418.41 577.56 416.42 567.98 415.44 C 566.61 415.23 564.99 415.14 563.75 414.46 C 560.16 409.47 558.13 402.56 559.66 396.49 C 561.15 390.90 565.08 386.47 568.64 382.09 C 564.27 377.10 559.07 371.26 557.19 364.80 C 555.96 361.07 557.90 356.90 559.71 353.68 C 565.88 343.43 574.55 333.97 584.96 327.95 C 588.47 326.26 592.18 324.05 595.51 327.43 C 609.04 339.82 623.17 352.12 641.69 355.97 C 626.42 347.59 614.52 335.86 602.22 323.78 C 599.14 320.98 596.62 317.76 592.01 318.18 C 582.84 318.78 573.98 326.20 567.61 332.33 C 562.59 313.44 560.76 292.73 564.63 273.47 C 567.69 257.33 574.84 241.99 585.31 229.32 C 599.74 211.61 619.47 198.93 641.24 192.22 C 663.37 185.32 687.47 184.33 710.15 188.99 Z" fill="#ffffff" />
<path d="M 689.90 381.09 C 697.01 384.65 702.85 390.48 707.91 396.51 C 702.27 392.28 696.32 386.98 689.78 384.30 C 685.23 382.36 680.16 381.95 675.44 383.56 C 667.74 386.17 661.58 391.69 655.13 396.40 C 660.25 390.29 666.51 384.18 673.86 380.85 C 679.06 378.48 684.76 378.56 689.90 381.09 Z" fill="#ffffff" />
<path d="M 678.49 403.65 C 684.39 402.49 690.80 404.64 694.38 409.57 C 698.17 414.52 698.72 421.35 695.92 426.89 C 692.96 432.75 686.56 436.43 679.98 435.61 C 671.21 434.64 664.56 425.72 666.05 417.04 C 666.99 410.52 672.06 405.07 678.49 403.65 Z" fill="#ffffff" />
<path d="M 574.00 423.56 C 578.16 423.84 582.38 425.17 586.42 426.19 C 561.86 430.15 537.18 433.46 512.66 437.72 C 507.70 453.80 507.69 471.44 510.11 487.97 C 513.25 507.68 519.62 526.76 528.69 544.53 C 533.58 544.50 538.37 543.74 543.20 543.08 C 564.20 540.08 585.14 536.75 606.13 533.72 C 607.63 526.39 609.15 519.10 610.11 511.68 C 611.94 514.12 614.77 516.64 614.15 520.00 C 613.54 526.25 611.87 532.58 610.44 538.70 C 588.74 542.26 566.92 545.22 545.19 548.59 C 539.80 549.25 534.26 550.50 528.82 550.29 C 525.91 549.68 523.79 546.03 522.38 543.65 C 516.32 532.50 512.06 520.25 508.61 508.07 C 505.97 497.65 503.65 486.71 503.25 475.95 C 503.08 471.31 503.09 466.65 503.19 462.00 C 503.36 452.11 505.53 442.13 508.88 432.84 C 526.55 429.97 544.29 427.48 561.99 424.76 C 565.91 424.18 570.03 423.37 574.00 423.56 Z" fill="#ffffff" />
<path d="M 795.01 423.73 C 814.77 426.79 834.52 429.93 854.30 432.89 C 857.34 441.57 859.47 450.79 859.75 460.01 C 861.60 486.35 854.53 513.77 843.59 537.60 C 841.63 541.51 839.77 546.42 836.44 549.34 C 833.55 551.49 828.33 549.92 824.98 549.64 C 800.96 545.86 776.86 542.51 752.86 538.62 C 751.54 532.18 749.44 525.50 749.22 518.94 C 748.93 515.82 751.43 513.62 753.11 511.31 C 754.29 518.74 755.66 526.12 757.12 533.49 C 779.03 537.03 801.03 540.17 822.98 543.56 C 826.83 544.21 830.53 544.51 834.45 544.47 C 842.40 528.54 848.58 511.52 852.02 494.03 C 855.39 475.62 855.70 455.76 850.58 437.65 C 826.38 433.58 802.10 430.05 777.86 426.24 C 783.64 424.48 788.84 422.58 795.01 423.73 Z" fill="#ffffff" />
<path d="M 770.33 427.11 C 761.34 441.49 757.39 458.89 752.44 475.12 C 752.33 467.07 752.42 459.16 753.69 451.22 C 754.78 444.52 756.64 437.50 761.46 432.46 C 763.97 429.79 767.04 428.53 770.33 427.11 Z" fill="#ffffff" />
<path d="M 593.21 426.95 C 596.46 428.35 599.53 429.30 601.98 432.00 C 605.08 435.51 607.02 440.03 608.18 444.53 C 610.68 454.70 610.88 464.68 610.77 475.10 C 606.55 460.06 602.44 443.98 594.93 430.22 C 594.35 429.13 593.78 428.04 593.21 426.95 Z" fill="#ffffff" />
<path d="M 610.90 432.13 C 613.28 432.98 615.64 433.96 617.83 435.21 C 618.89 435.94 620.15 436.35 619.70 437.92 C 618.91 441.99 617.60 445.94 616.86 450.03 C 615.56 443.80 613.22 438.03 610.90 432.13 Z" fill="#ffffff" />
<path d="M 752.38 431.96 C 749.59 437.95 747.71 443.71 746.28 450.17 C 745.52 445.62 744.40 441.18 743.10 436.76 C 746.06 434.85 749.14 433.31 752.38 431.96 Z" fill="#ffffff" />
<path d="M 574.71 438.38 C 573.48 442.40 572.19 446.39 570.98 450.41 C 552.36 453.26 533.74 456.33 515.08 458.94 C 515.56 455.09 516.21 451.26 516.87 447.44 C 536.11 444.10 555.43 441.43 574.71 438.38 Z" fill="#ffffff" />
<path d="M 788.90 438.35 C 808.14 441.19 827.35 444.25 846.54 447.43 C 847.19 451.25 847.68 455.06 847.99 458.93 C 829.50 456.49 811.09 453.33 792.66 450.48 C 791.40 446.44 790.18 442.39 788.90 438.35 Z" fill="#ffffff" />
<path d="M 659.93 444.75 C 657.34 451.74 654.90 458.75 653.22 466.02 C 650.48 477.61 649.40 489.32 648.40 501.16 C 644.77 494.64 643.26 487.49 644.02 480.04 C 645.10 467.08 649.68 453.36 659.93 444.75 Z" fill="#ffffff" />
<path d="M 703.36 444.58 C 708.74 449.20 712.48 455.30 715.01 461.87 C 718.22 470.10 719.85 479.21 719.15 488.04 C 718.82 492.80 716.93 496.91 714.75 501.07 C 713.59 489.30 712.66 477.73 709.90 466.19 C 708.35 458.76 705.81 451.73 703.36 444.58 Z" fill="#ffffff" />
<path d="M 618.42 511.26 C 624.90 522.76 631.95 533.84 640.67 543.79 C 634.14 540.52 628.03 537.45 623.46 531.51 C 618.72 525.69 618.67 518.38 618.42 511.26 Z" fill="#ffffff" />
<path d="M 744.49 511.44 C 744.24 518.77 743.82 526.05 738.97 531.97 C 734.56 537.59 728.73 540.21 722.54 543.33 C 730.46 534.53 736.12 524.45 742.42 514.53 C 743.11 513.50 743.80 512.47 744.49 511.44 Z" fill="#ffffff" />
</svg>