<?xml version="1.0" encoding="UTF-8" standalone="no"?>
<!DOCTYPE svg PUBLIC "-//W3C//DTD SVG 1.1//EN" "http://www.w3.org/Graphics/SVG/1.1/DTD/svg11.dtd">
<svg xmlns="http://www.w3.org/2000/svg" version="1.1" viewBox="180 315 1005 155" width="1005" height="155">
<path d="M 207.41 338.44 C 215.97 338.03 224.60 338.42 233.18 338.29 C 239.80 359.77 246.38 381.26 253.02 402.73 C 259.39 381.25 265.72 359.77 272.08 338.29 C 281.01 338.28 289.93 338.29 298.85 338.29 C 298.87 364.68 298.82 391.07 298.88 417.47 C 308.46 391.16 317.94 364.81 327.49 338.49 C 334.97 338.49 342.45 338.49 349.92 338.49 C 359.80 365.25 369.67 392.02 379.54 418.79 C 372.54 418.79 365.54 418.79 358.54 418.79 C 356.58 413.29 354.62 407.81 352.67 402.32 C 343.44 402.31 334.22 402.32 324.99 402.32 C 323.13 407.80 321.28 413.29 319.43 418.79 C 306.01 418.80 292.58 418.79 279.15 418.79 C 279.13 400.07 279.19 381.35 279.12 362.63 C 272.97 381.33 266.96 400.08 260.85 418.79 C 255.30 418.79 249.74 418.79 244.19 418.79 C 238.42 400.49 232.74 382.15 226.91 363.87 C 226.84 382.18 226.90 400.48 226.88 418.79 C 220.34 418.79 213.80 418.79 207.26 418.79 C 207.25 395.53 207.27 372.26 207.25 349.00 C 207.27 345.49 207.08 341.93 207.41 338.44 Z" fill="#545454" />
<path d="M 390.98 338.37 C 406.33 338.37 421.68 338.39 437.03 338.36 C 440.39 338.41 444.72 338.44 447.58 340.42 C 449.95 342.12 450.34 345.27 450.54 347.96 C 450.82 354.23 450.58 360.54 450.65 366.82 C 443.06 366.82 435.47 366.82 427.88 366.82 C 427.72 361.08 428.34 355.14 427.49 349.47 C 423.44 348.70 419.11 349.13 415.00 349.05 C 410.47 349.15 405.78 348.71 401.29 349.39 C 400.35 354.12 400.93 359.19 400.80 364.00 C 400.95 378.60 400.49 393.24 401.05 407.83 C 407.06 408.25 412.98 408.05 419.00 408.13 C 421.80 408.11 424.79 408.23 427.53 407.62 C 428.34 401.27 427.70 394.68 427.89 388.27 C 435.48 388.27 443.06 388.27 450.65 388.27 C 450.60 394.86 450.75 401.45 450.60 408.04 C 450.43 411.00 450.29 414.73 447.68 416.67 C 444.83 418.72 440.39 418.73 437.01 418.80 C 421.67 418.78 406.33 418.80 390.98 418.79 C 387.69 418.71 383.25 418.63 380.59 416.43 C 378.07 414.27 378.05 410.08 377.92 407.03 C 377.88 388.36 377.92 369.67 377.90 350.99 C 378.04 347.70 377.89 342.99 380.69 340.67 C 383.37 338.51 387.69 338.44 390.98 338.37 Z" fill="#545454" />
<path d="M 452.83 338.37 C 471.57 338.37 490.30 338.38 509.03 338.36 C 512.34 338.42 516.68 338.49 519.43 340.57 C 522.12 342.65 522.14 346.91 522.31 349.99 C 522.39 359.32 522.30 368.67 522.35 378.00 C 522.24 381.26 522.42 385.65 520.41 388.40 C 518.65 390.90 514.81 391.18 512.07 391.90 C 516.72 400.87 521.29 409.89 525.92 418.87 C 518.95 418.87 511.97 418.87 504.99 418.87 C 500.46 409.80 495.92 400.72 491.38 391.65 C 486.12 391.65 480.85 391.65 475.59 391.65 C 475.59 400.70 475.59 409.74 475.59 418.79 C 468.00 418.79 460.42 418.79 452.83 418.79 C 452.83 391.98 452.83 365.18 452.83 338.37 Z" fill="#545454" />
<path d="M 536.98 338.38 C 552.32 338.35 567.67 338.40 583.01 338.35 C 586.29 338.39 590.18 338.37 593.18 339.83 C 595.27 340.84 596.38 342.80 596.75 345.02 C 597.51 349.57 597.18 354.39 597.23 359.00 C 597.20 375.00 597.26 391.01 597.22 407.01 C 597.07 410.10 597.11 414.34 594.49 416.49 C 591.77 418.65 587.33 418.72 584.02 418.80 C 568.67 418.79 553.33 418.78 537.99 418.80 C 534.78 418.73 530.80 418.69 527.97 417.01 C 524.65 415.02 524.65 410.45 524.50 407.04 C 524.46 388.36 524.50 369.66 524.48 350.98 C 524.59 347.83 524.53 343.32 526.95 340.95 C 529.47 338.61 533.73 338.47 536.98 338.38 Z" fill="#545454" />
<path d="M 624.55 338.72 C 631.90 338.09 639.40 338.68 646.78 338.48 C 656.52 364.82 666.22 391.17 675.95 417.51 C 675.98 391.10 675.95 364.70 675.96 338.30 C 684.60 338.29 693.25 338.30 701.89 338.29 C 708.52 359.76 715.09 381.26 721.73 402.73 C 728.09 381.26 734.44 359.78 740.78 338.30 C 749.71 338.28 758.64 338.30 767.57 338.29 C 767.56 365.12 767.56 391.95 767.57 418.78 C 761.00 418.79 754.43 418.79 747.87 418.78 C 747.85 400.05 747.89 381.32 747.84 362.59 C 741.71 381.30 735.67 400.05 729.58 418.78 C 724.02 418.79 718.46 418.79 712.90 418.78 C 707.13 400.44 701.40 382.08 695.61 363.74 C 695.58 382.09 695.61 400.44 695.59 418.79 C 682.19 418.78 668.79 418.79 655.40 418.78 C 653.45 413.29 651.49 407.81 649.54 402.32 C 640.31 402.31 631.09 402.32 621.86 402.32 C 620.00 407.80 618.15 413.29 616.30 418.78 C 609.30 418.79 602.30 418.79 595.30 418.78 C 603.74 395.41 612.22 372.05 620.66 348.67 C 621.90 345.38 622.83 341.81 624.55 338.72 Z" fill="#ff5757" />
<path d="M 772.99 338.41 C 790.97 338.28 809.01 338.45 827.00 338.35 C 830.52 338.39 834.44 338.15 837.84 339.16 C 839.85 339.76 841.46 340.99 842.09 343.06 C 843.31 347.11 842.87 351.80 842.96 356.00 C 842.81 361.15 843.32 366.45 842.64 371.55 C 842.20 374.58 839.73 375.32 837.48 376.80 C 839.95 378.29 842.82 379.24 843.57 382.36 C 844.50 387.43 843.85 392.85 844.00 398.00 C 843.87 403.28 844.56 409.13 843.15 414.24 C 841.80 418.26 836.61 418.62 833.04 418.77 C 812.47 418.82 791.85 418.76 771.26 418.79 C 771.25 393.18 771.29 367.56 771.23 341.96 C 771.62 340.28 770.38 338.03 772.99 338.41 Z" fill="#ff5757" />
<path d="M 847.73 338.38 C 855.32 338.38 862.90 338.37 870.49 338.38 C 870.49 365.18 870.49 391.98 870.48 418.78 C 862.90 418.79 855.31 418.79 847.73 418.78 C 847.73 391.98 847.72 365.18 847.73 338.38 Z" fill="#ff5757" />
<path d="M 874.36 338.66 C 878.21 338.28 882.14 338.51 886.00 338.48 C 904.82 338.50 923.64 338.48 942.45 338.49 C 942.45 342.05 942.45 345.60 942.45 349.15 C 927.28 349.16 912.10 349.15 896.93 349.16 C 896.93 356.86 896.93 364.55 896.93 372.25 C 912.15 372.26 927.37 372.24 942.58 372.25 C 942.58 375.81 942.58 379.36 942.58 382.92 C 927.37 382.93 912.15 382.92 896.93 382.93 C 896.93 391.35 896.93 399.78 896.93 408.20 C 912.10 408.22 927.28 408.20 942.45 408.21 C 942.45 411.76 942.45 415.32 942.45 418.87 C 919.69 418.88 896.93 418.88 874.17 418.87 C 874.17 395.92 874.18 372.96 874.17 350.00 C 874.20 346.24 873.95 342.40 874.36 338.66 Z" fill="#ff5757" />
<path d="M 944.85 338.38 C 953.06 338.38 961.27 338.37 969.48 338.38 C 978.83 358.05 988.18 377.72 997.56 397.37 C 997.58 377.71 997.56 358.04 997.57 338.38 C 1049.12 338.28 1100.65 338.54 1152.19 338.49 C 1152.20 342.04 1152.20 345.60 1152.20 349.15 C 1137.02 349.16 1121.85 349.15 1106.68 349.16 C 1106.68 356.85 1106.68 364.55 1106.68 372.25 C 1121.90 372.25 1137.11 372.25 1152.32 372.25 C 1152.33 375.81 1152.33 379.36 1152.33 382.92 C 1137.11 382.93 1121.90 382.92 1106.68 382.93 C 1106.68 391.35 1106.68 399.78 1106.68 408.20 C 1121.85 408.21 1137.02 408.20 1152.19 408.21 C 1152.20 411.76 1152.20 415.32 1152.20 418.87 C 1129.44 418.88 1106.68 418.88 1083.92 418.87 C 1083.91 395.60 1083.92 372.33 1083.92 349.05 C 1076.84 349.05 1069.76 349.05 1062.69 349.06 C 1062.68 372.30 1062.68 395.54 1062.69 418.79 C 1055.10 418.79 1047.51 418.79 1039.93 418.78 C 1039.92 395.54 1039.92 372.30 1039.92 349.05 C 1032.48 349.05 1025.04 349.05 1017.59 349.06 C 1017.60 372.30 1017.59 395.54 1017.60 418.78 C 1009.57 418.78 1001.54 418.79 993.52 418.78 C 984.04 398.97 974.54 379.18 965.05 359.38 C 965.00 379.18 965.05 398.98 965.03 418.78 C 958.30 418.79 951.58 418.79 944.85 418.78 C 944.85 391.98 944.85 365.18 944.85 338.38 Z" fill="#ff5757" />
<path d="M 475.59 349.05 C 483.34 349.24 491.21 348.66 498.92 349.33 C 500.11 352.93 499.44 357.23 499.58 361.00 C 499.37 367.41 500.02 373.98 499.25 380.34 C 497.36 381.09 495.01 380.95 493.00 380.99 C 487.20 380.94 481.39 380.94 475.59 380.95 C 475.59 370.32 475.59 359.68 475.59 349.05 Z" fill="#ffffff" />
<path d="M 548.21 349.34 C 552.07 348.76 556.10 349.11 560.00 349.05 C 564.61 349.14 569.35 348.74 573.93 349.35 C 574.85 353.06 574.41 357.19 574.49 361.00 C 574.31 376.62 574.78 392.28 574.24 407.89 C 565.54 408.09 556.67 408.44 548.00 407.78 C 547.30 405.96 547.37 403.94 547.33 402.01 C 547.42 385.99 547.38 369.97 547.35 353.95 C 547.49 352.60 547.19 350.38 548.21 349.34 Z" fill="#ffffff" />
<path d="M 794.04 349.05 C 801.38 349.14 808.74 348.89 816.08 349.10 C 817.44 349.22 819.69 349.32 819.83 351.10 C 820.62 358.36 819.94 365.82 820.15 373.13 C 811.45 373.13 802.74 373.13 794.04 373.13 C 794.03 365.11 794.03 357.08 794.04 349.05 Z" fill="#ffffff" />
<path d="M 338.60 362.27 C 342.06 372.06 345.50 381.85 348.94 391.65 C 342.15 391.65 335.37 391.65 328.58 391.65 C 331.92 381.85 335.24 372.05 338.60 362.27 Z" fill="#ffffff" />
<path d="M 635.46 362.27 C 638.93 372.06 642.36 381.86 645.81 391.65 C 639.02 391.65 632.23 391.65 625.45 391.65 C 628.78 381.86 632.11 372.06 635.46 362.27 Z" fill="#ffffff" />
<path d="M 794.04 383.80 C 803.11 383.80 812.17 383.80 821.24 383.81 C 821.23 389.20 821.25 394.60 821.30 400.00 C 821.27 402.44 821.31 405.12 820.44 407.43 C 817.80 408.22 814.75 408.12 812.00 408.14 C 806.01 408.08 800.03 408.09 794.04 408.09 C 794.03 400.00 794.03 391.90 794.04 383.80 Z" fill="#ffffff" />
<path d="M 207.57 435.17 C 336.76 435.26 465.94 435.39 595.13 435.51 C 595.13 440.37 595.12 445.22 595.12 450.07 C 465.93 449.98 336.75 449.84 207.56 449.74 C 207.56 444.88 207.57 440.03 207.57 435.17 Z" fill="#ff5757" />
<path d="M 599.47 435.45 C 603.60 434.75 608.52 434.77 612.66 435.38 C 613.10 437.06 613.30 438.83 613.56 440.54 C 611.99 440.58 610.42 440.60 608.84 440.63 C 608.82 439.46 608.79 438.30 608.77 437.13 C 607.04 437.14 605.30 437.14 603.57 437.14 C 603.55 440.96 603.55 444.77 603.57 448.59 C 605.31 448.59 607.04 448.59 608.78 448.59 C 608.80 447.32 608.82 446.04 608.83 444.76 C 610.31 444.76 611.80 444.76 613.28 444.76 C 613.23 446.65 613.18 448.54 613.12 450.43 C 608.65 450.66 604.00 451.02 599.55 450.36 C 598.78 445.73 598.87 440.11 599.47 435.45 Z" fill="#545454" />
<path d="M 615.25 435.40 C 619.43 434.77 624.39 434.74 628.56 435.45 C 629.22 439.97 629.27 445.83 628.52 450.34 C 624.06 451.03 619.38 450.67 614.89 450.41 C 614.89 445.46 614.38 440.28 615.25 435.40 Z" fill="#545454" />
<path d="M 630.69 435.06 C 632.29 435.06 633.89 435.07 635.49 435.08 C 637.29 438.89 639.09 442.71 640.91 446.51 C 640.93 442.70 640.93 438.88 640.93 435.07 C 642.22 435.07 643.52 435.06 644.82 435.06 C 644.82 440.27 644.82 445.47 644.82 450.67 C 643.26 450.67 641.71 450.67 640.15 450.68 C 638.30 446.84 636.46 443.00 634.61 439.17 C 634.60 443.00 634.60 446.84 634.60 450.67 C 633.30 450.67 631.99 450.67 630.69 450.67 C 630.69 445.47 630.69 440.26 630.69 435.06 Z" fill="#545454" />
<path d="M 645.90 435.07 C 650.32 435.06 654.74 435.06 659.17 435.07 L 659.14 437.13 C 657.67 437.13 656.20 437.14 654.72 437.14 C 654.73 441.65 654.73 446.16 654.72 450.67 C 653.25 450.67 651.77 450.67 650.30 450.67 C 650.30 446.16 650.30 441.65 650.30 437.14 C 648.83 437.14 647.37 437.13 645.90 437.13 L 645.90 435.07 Z" fill="#545454" />
<path d="M 659.99 435.08 C 664.29 435.11 668.71 434.80 672.98 435.33 C 673.72 438.19 673.49 441.42 673.53 444.36 C 672.89 444.82 672.26 445.29 671.62 445.75 C 672.48 447.40 673.33 449.04 674.19 450.69 C 672.83 450.69 671.47 450.70 670.11 450.70 C 669.24 448.94 668.36 447.18 667.49 445.42 C 666.47 445.42 665.44 445.41 664.42 445.40 C 664.42 447.16 664.41 448.92 664.41 450.67 C 662.93 450.67 661.46 450.67 659.98 450.67 C 659.98 445.47 659.98 440.28 659.99 435.08 Z" fill="#545454" />
<path d="M 688.76 435.40 C 689.62 440.28 689.11 445.47 689.10 450.42 C 684.63 450.67 679.99 451.01 675.54 450.37 C 674.67 445.64 674.81 440.21 675.44 435.45 C 679.62 434.74 684.57 434.77 688.76 435.40 Z" fill="#545454" />
<path d="M 690.94 435.09 C 692.41 435.09 693.89 435.09 695.37 435.09 C 695.37 439.60 695.37 444.11 695.37 448.63 C 698.31 448.63 701.26 448.63 704.21 448.63 L 704.21 450.70 C 699.79 450.70 695.36 450.70 690.94 450.70 C 690.93 445.50 690.94 440.30 690.94 435.09 Z" fill="#545454" />
<path d="M 710.49 435.08 C 714.80 435.15 719.36 434.67 723.60 435.50 C 725.21 438.10 724.56 442.10 724.69 445.05 C 724.47 446.70 724.95 450.23 722.59 450.40 C 718.63 450.99 714.49 450.61 710.49 450.66 C 710.50 445.47 710.50 440.27 710.49 435.08 Z" fill="#545454" />
<path d="M 726.17 435.10 C 730.82 435.15 735.82 434.67 740.36 435.70 C 738.07 437.96 733.60 437.00 730.59 437.20 C 730.59 438.69 730.60 440.17 730.60 441.65 C 733.54 441.65 736.49 441.66 739.44 441.66 C 739.45 442.35 739.47 443.03 739.49 443.72 C 736.52 443.73 733.56 443.73 730.60 443.74 C 730.60 445.36 730.60 446.99 730.59 448.62 C 733.52 448.63 736.45 448.63 739.38 448.62 L 739.51 450.68 C 735.06 450.71 730.62 450.70 726.18 450.70 C 726.18 445.50 726.18 440.30 726.17 435.10 Z" fill="#545454" />
<path d="M 745.93 435.08 C 750.23 435.11 754.64 434.79 758.90 435.34 C 759.79 438.44 759.38 442.04 759.30 445.25 C 756.32 445.37 753.34 445.42 750.35 445.46 C 750.35 447.19 750.35 448.93 750.36 450.67 C 748.88 450.67 747.41 450.67 745.93 450.67 C 745.93 445.47 745.93 440.27 745.93 435.08 Z" fill="#545454" />
<path d="M 761.22 435.09 C 762.69 435.09 764.17 435.09 765.64 435.09 C 765.64 439.59 765.64 444.09 765.64 448.59 C 768.94 448.61 772.24 448.64 775.55 448.78 C 777.14 444.21 778.81 439.66 780.45 435.10 C 781.90 435.09 783.36 435.09 784.82 435.08 C 786.74 440.27 788.66 445.47 790.57 450.67 C 789.21 450.67 787.85 450.67 786.49 450.67 C 786.11 449.61 785.73 448.55 785.35 447.49 C 783.57 447.49 781.80 447.48 780.03 447.48 C 779.64 448.54 779.25 449.60 778.86 450.66 C 772.98 450.61 767.10 450.74 761.22 450.71 C 761.22 445.50 761.22 440.29 761.22 435.09 Z" fill="#545454" />
<path d="M 802.07 435.03 C 803.07 435.25 805.31 434.90 805.28 436.44 C 805.53 437.79 805.65 439.18 805.81 440.54 C 804.25 440.58 802.70 440.61 801.15 440.64 C 801.12 439.48 801.10 438.31 801.07 437.14 C 799.33 437.14 797.60 437.14 795.86 437.14 C 795.85 440.95 795.85 444.77 795.86 448.59 C 797.60 448.59 799.34 448.59 801.09 448.59 C 801.10 447.21 801.11 445.83 801.13 444.44 L 798.66 444.33 L 798.65 442.31 C 800.96 442.31 803.26 442.31 805.56 442.31 C 805.54 445.03 805.50 447.74 805.41 450.45 C 800.80 450.75 796.18 450.75 791.57 450.50 C 791.44 445.56 791.06 440.47 791.69 435.57 C 795.02 434.75 798.66 434.90 802.07 435.03 Z" fill="#545454" />
<path d="M 812.07 435.41 C 813.43 435.13 814.81 434.98 816.19 434.81 C 818.12 440.10 820.08 445.38 822.02 450.67 C 820.66 450.67 819.31 450.67 817.96 450.67 C 817.57 449.61 817.19 448.55 816.80 447.49 C 815.02 447.49 813.25 447.48 811.47 447.48 C 811.09 448.54 810.71 449.61 810.34 450.68 C 808.98 450.67 807.63 450.67 806.28 450.67 C 808.29 445.65 809.62 440.22 812.07 435.41 Z" fill="#545454" />
<path d="M 823.24 435.37 C 827.65 434.75 832.25 435.08 836.70 435.22 C 836.84 436.76 836.97 438.30 837.10 439.84 C 835.61 439.85 834.12 439.87 832.62 439.89 C 832.57 438.97 832.51 438.05 832.45 437.12 C 830.74 437.14 829.04 437.15 827.33 437.17 C 827.30 438.67 827.28 440.18 827.25 441.68 C 830.48 441.70 833.71 441.73 836.94 441.84 C 836.97 444.74 836.94 447.65 836.79 450.55 C 832.27 450.73 827.73 450.71 823.21 450.57 C 823.04 449.01 822.88 447.46 822.73 445.90 C 824.22 445.90 825.72 445.90 827.21 445.89 C 827.27 446.80 827.34 447.70 827.41 448.60 C 829.11 448.59 830.81 448.58 832.52 448.56 C 832.54 446.98 832.56 445.39 832.58 443.81 C 829.33 443.80 826.08 443.78 822.83 443.70 C 822.85 440.96 822.74 438.07 823.24 435.37 Z" fill="#545454" />
<path d="M 867.87 435.36 C 868.33 437.03 868.54 438.80 868.81 440.52 C 867.23 440.56 865.65 440.60 864.07 440.64 L 864.03 437.15 C 862.28 437.15 860.54 437.14 858.79 437.14 C 858.78 440.96 858.77 444.78 858.79 448.60 C 860.54 448.59 862.28 448.59 864.03 448.58 C 864.04 447.30 864.05 446.03 864.06 444.75 C 865.54 444.76 867.03 444.76 868.51 444.77 C 868.46 446.66 868.40 448.55 868.33 450.45 C 863.85 450.65 859.14 451.06 854.70 450.31 C 854.06 445.84 854.10 440.01 854.65 435.53 C 858.90 434.68 863.58 434.80 867.87 435.36 Z" fill="#545454" />
<path d="M 870.05 435.08 C 871.52 435.08 872.98 435.09 874.45 435.09 C 874.45 439.59 874.45 444.09 874.46 448.59 C 876.21 448.59 877.96 448.59 879.70 448.58 C 879.72 444.09 879.71 439.59 879.71 435.09 C 881.18 435.09 882.65 435.09 884.12 435.09 C 884.05 440.06 884.43 445.12 883.88 450.05 C 881.27 451.06 872.84 451.07 870.25 450.05 C 869.69 445.11 870.08 440.04 870.05 435.08 Z" fill="#545454" />
<path d="M 885.94 435.07 C 887.62 435.06 889.29 435.06 890.97 435.06 C 892.25 439.22 893.53 443.38 894.82 447.54 C 896.06 443.39 897.28 439.23 898.51 435.07 C 900.25 435.07 901.99 435.06 903.73 435.06 C 903.73 440.27 903.73 445.47 903.72 450.67 C 902.45 450.67 901.17 450.67 899.90 450.67 C 899.90 447.07 899.90 443.46 899.87 439.86 C 898.68 443.45 897.52 447.06 896.35 450.66 C 895.27 450.67 894.20 450.68 893.12 450.68 C 892.00 447.15 890.89 443.62 889.76 440.09 C 889.74 443.62 889.74 447.15 889.74 450.68 C 888.47 450.67 887.20 450.67 885.93 450.67 C 885.94 445.47 885.93 440.27 885.94 435.07 Z" fill="#545454" />
<path d="M 905.58 435.06 C 910.01 435.05 914.43 435.01 918.85 435.25 C 919.04 438.58 919.08 441.88 918.98 445.21 C 915.99 445.37 913.00 445.43 910.00 445.46 C 910.00 447.20 910.00 448.94 910.00 450.67 C 908.53 450.67 907.05 450.67 905.58 450.67 C 905.58 445.47 905.58 440.26 905.58 435.06 Z" fill="#545454" />
<path d="M 920.83 435.09 C 922.31 435.09 923.78 435.09 925.26 435.09 C 925.26 439.60 925.26 444.11 925.26 448.62 C 928.20 448.63 931.15 448.63 934.09 448.63 L 934.10 450.70 C 929.68 450.70 925.26 450.70 920.84 450.70 C 920.84 445.50 920.84 440.29 920.83 435.09 Z" fill="#545454" />
<path d="M 935.57 435.06 C 937.03 435.06 938.50 435.06 939.97 435.06 C 939.97 440.27 939.97 445.47 939.97 450.67 C 938.50 450.67 937.04 450.67 935.57 450.67 C 935.57 445.47 935.57 440.27 935.57 435.06 Z" fill="#545454" />
<path d="M 942.10 435.06 C 943.78 435.06 945.46 435.07 947.14 435.07 C 948.41 439.22 949.69 443.38 950.98 447.53 C 952.23 443.38 953.45 439.23 954.67 435.07 C 956.41 435.07 958.15 435.06 959.89 435.06 C 959.89 440.26 959.89 445.47 959.89 450.67 C 958.61 450.67 957.34 450.68 956.07 450.68 C 956.07 447.09 956.07 443.50 956.04 439.91 C 954.84 443.49 953.67 447.08 952.51 450.66 C 951.43 450.67 950.36 450.68 949.28 450.68 C 948.17 447.16 947.06 443.63 945.93 440.12 C 945.91 443.64 945.91 447.16 945.91 450.67 C 944.64 450.68 943.37 450.68 942.10 450.68 C 942.10 445.47 942.10 440.27 942.10 435.06 Z" fill="#545454" />
<path d="M 962.05 435.06 C 963.52 435.06 964.99 435.07 966.46 435.07 C 966.46 440.27 966.46 445.47 966.46 450.67 C 964.99 450.67 963.52 450.67 962.05 450.67 C 962.05 445.47 962.05 440.27 962.05 435.06 Z" fill="#545454" />
<path d="M 968.32 435.09 C 972.75 435.09 977.19 435.08 981.62 435.10 C 981.60 435.79 981.58 436.48 981.56 437.16 C 978.62 437.16 975.68 437.16 972.74 437.17 C 972.74 438.66 972.74 440.16 972.74 441.66 C 975.69 441.65 978.64 441.65 981.59 441.65 C 981.60 442.34 981.62 443.03 981.64 443.72 C 978.67 443.73 975.71 443.73 972.74 443.74 C 972.74 445.36 972.74 446.99 972.74 448.62 C 975.67 448.63 978.59 448.63 981.51 448.62 L 981.66 450.68 C 977.21 450.71 972.77 450.70 968.32 450.70 C 968.32 445.50 968.32 440.29 968.32 435.09 Z" fill="#545454" />
<path d="M 983.17 435.06 C 984.76 435.06 986.36 435.07 987.96 435.07 C 989.77 438.88 991.57 442.70 993.39 446.51 C 993.40 442.61 993.40 438.72 993.42 434.82 C 994.63 435.00 995.84 435.19 997.04 435.38 C 997.51 440.42 997.27 445.60 997.29 450.67 C 995.73 450.67 994.18 450.67 992.62 450.67 C 990.78 446.84 988.95 443.00 987.10 439.17 C 987.09 443.00 987.09 446.83 987.09 450.67 C 985.78 450.67 984.48 450.68 983.17 450.68 C 983.17 445.47 983.17 440.27 983.17 435.06 Z" fill="#545454" />
<path d="M 1012.40 435.44 C 1016.90 435.06 1021.88 434.48 1026.31 435.58 C 1026.83 440.06 1026.86 445.82 1026.25 450.29 C 1022.01 450.87 1017.06 451.12 1012.87 450.18 C 1012.03 445.72 1012.57 440.91 1012.61 436.38 C 1010.80 436.74 1008.99 437.07 1007.17 437.39 C 1007.22 441.82 1007.21 446.24 1007.20 450.67 C 1005.73 450.67 1004.26 450.67 1002.78 450.67 C 1002.78 446.35 1002.77 442.02 1002.81 437.70 C 1001.38 437.14 999.93 436.61 998.54 435.95 C 1002.68 434.20 1008.01 435.15 1012.40 435.44 Z" fill="#545454" />
<path d="M 1046.78 435.35 C 1047.23 436.77 1047.50 438.26 1047.82 439.71 C 1046.26 439.80 1044.70 439.87 1043.14 439.95 C 1043.03 439.00 1042.93 438.06 1042.83 437.11 C 1041.14 437.13 1039.45 437.15 1037.77 437.16 C 1037.74 438.67 1037.71 440.18 1037.69 441.69 C 1040.91 441.71 1044.13 441.73 1047.35 441.81 C 1047.40 444.70 1047.40 447.58 1047.35 450.46 C 1042.89 450.64 1038.23 451.04 1033.80 450.36 C 1033.41 448.91 1033.21 447.39 1032.96 445.92 C 1034.52 445.91 1036.08 445.90 1037.65 445.89 C 1037.71 446.79 1037.77 447.69 1037.84 448.60 C 1039.53 448.59 1041.23 448.58 1042.93 448.56 C 1042.97 446.98 1043.00 445.39 1043.04 443.81 C 1039.80 443.80 1036.55 443.78 1033.31 443.69 C 1033.29 440.98 1033.15 438.16 1033.57 435.48 C 1037.80 434.73 1042.53 434.78 1046.78 435.35 Z" fill="#545454" />
<path d="M 1053.83 435.09 C 1055.28 435.09 1056.74 435.09 1058.19 435.09 C 1060.11 440.28 1062.03 445.48 1063.94 450.68 C 1062.58 450.67 1061.22 450.67 1059.86 450.67 C 1059.48 449.61 1059.10 448.55 1058.73 447.50 C 1056.95 447.49 1055.17 447.48 1053.39 447.47 C 1053.01 448.54 1052.63 449.60 1052.25 450.67 C 1050.90 450.67 1049.55 450.67 1048.19 450.67 C 1050.07 445.48 1051.95 440.28 1053.83 435.09 Z" fill="#545454" />
<path d="M 1064.95 435.07 C 1066.54 435.07 1068.14 435.07 1069.74 435.06 C 1071.55 438.87 1073.35 442.67 1075.18 446.47 C 1075.20 442.66 1075.20 438.86 1075.20 435.06 C 1076.49 435.06 1077.79 435.07 1079.09 435.07 C 1079.09 440.27 1079.09 445.47 1079.09 450.67 C 1077.53 450.67 1075.96 450.67 1074.40 450.67 C 1072.58 446.85 1070.74 443.02 1068.89 439.21 C 1068.87 443.04 1068.87 446.86 1068.87 450.68 C 1067.56 450.67 1066.25 450.67 1064.95 450.66 C 1064.95 445.47 1064.95 440.27 1064.95 435.07 Z" fill="#545454" />
<path d="M 1081.16 435.06 C 1082.64 435.06 1084.12 435.07 1085.59 435.07 C 1085.59 440.27 1085.59 445.47 1085.59 450.67 C 1084.12 450.67 1082.64 450.67 1081.17 450.67 C 1081.16 445.47 1081.16 440.27 1081.16 435.06 Z" fill="#545454" />
<path d="M 1086.44 435.27 C 1090.94 434.86 1095.52 435.09 1100.03 435.08 L 1100.03 437.13 C 1098.55 437.13 1097.07 437.14 1095.59 437.14 C 1095.59 441.65 1095.59 446.16 1095.59 450.67 C 1094.12 450.67 1092.64 450.67 1091.17 450.67 C 1091.16 446.28 1091.16 441.88 1091.17 437.48 C 1089.21 436.84 1086.94 437.74 1086.44 435.27 Z" fill="#545454" />
<path d="M 1110.06 435.08 C 1111.98 440.28 1113.90 445.47 1115.81 450.67 C 1114.45 450.67 1113.10 450.67 1111.74 450.67 C 1111.35 449.61 1110.95 448.54 1110.56 447.47 C 1108.78 447.48 1106.99 447.49 1105.21 447.50 C 1104.85 448.56 1104.49 449.62 1104.12 450.68 C 1102.77 450.68 1101.41 450.68 1100.06 450.67 C 1101.94 445.48 1103.82 440.29 1105.69 435.10 C 1107.15 435.09 1108.60 435.09 1110.06 435.08 Z" fill="#545454" />
<path d="M 1116.64 435.08 C 1120.96 435.13 1125.43 434.75 1129.71 435.39 C 1130.51 439.12 1130.57 442.93 1128.74 446.38 C 1129.42 447.84 1130.10 449.28 1130.79 450.73 C 1129.45 450.71 1128.10 450.70 1126.76 450.68 C 1125.89 448.93 1125.02 447.18 1124.15 445.43 C 1123.12 445.42 1122.10 445.41 1121.08 445.39 C 1121.07 447.15 1121.06 448.91 1121.06 450.68 C 1119.58 450.67 1118.11 450.67 1116.64 450.67 C 1116.64 445.47 1116.64 440.27 1116.64 435.08 Z" fill="#545454" />
<path d="M 1131.96 435.08 C 1133.44 435.07 1134.93 435.07 1136.41 435.06 C 1136.41 440.26 1136.41 445.47 1136.41 450.67 C 1134.93 450.67 1133.45 450.67 1131.97 450.66 C 1131.96 445.47 1131.97 440.27 1131.96 435.08 Z" fill="#545454" />
<path d="M 1138.63 435.48 C 1142.92 434.71 1147.62 434.79 1151.93 435.37 C 1152.91 440.23 1152.31 445.50 1152.30 450.44 C 1147.81 450.65 1143.10 451.05 1138.65 450.30 C 1138.02 446.07 1138.04 439.73 1138.63 435.48 Z" fill="#545454" />
<path d="M 619.41 437.35 C 621.08 437.13 622.79 437.07 624.47 436.98 C 624.52 440.85 624.52 444.72 624.50 448.59 C 622.76 448.59 621.02 448.59 619.27 448.59 C 619.27 444.86 619.06 441.07 619.41 437.35 Z" fill="#ffffff" />
<path d="M 664.42 437.12 C 665.97 437.13 667.52 437.14 669.07 437.16 C 669.07 439.21 669.07 441.26 669.07 443.31 C 667.52 443.32 665.97 443.33 664.42 443.34 C 664.42 441.27 664.42 439.20 664.42 437.12 Z" fill="#ffffff" />
<path d="M 679.67 437.37 C 681.34 437.12 683.04 437.07 684.72 436.97 C 684.78 440.84 684.78 444.71 684.76 448.58 C 683.02 448.59 681.27 448.59 679.53 448.59 C 679.53 444.86 679.31 441.08 679.67 437.37 Z" fill="#ffffff" />
<path d="M 714.94 437.12 C 716.68 437.14 718.43 437.15 720.17 437.17 C 720.21 440.97 720.21 444.76 720.17 448.56 C 718.43 448.58 716.68 448.59 714.94 448.61 C 714.94 444.78 714.94 440.95 714.94 437.12 Z" fill="#ffffff" />
<path d="M 750.36 437.12 C 751.92 437.13 753.47 437.15 755.02 437.17 C 755.03 439.22 755.03 441.26 755.03 443.30 C 753.47 443.32 751.92 443.33 750.36 443.35 C 750.36 441.27 750.36 439.19 750.36 437.12 Z" fill="#ffffff" />
<path d="M 910.00 437.13 C 911.55 437.13 913.09 437.14 914.64 437.15 C 914.65 439.20 914.65 441.26 914.66 443.31 C 913.10 443.32 911.55 443.33 910.00 443.34 C 910.00 441.27 910.00 439.20 910.00 437.13 Z" fill="#ffffff" />
<path d="M 1121.07 437.13 C 1122.61 437.13 1124.16 437.14 1125.70 437.15 C 1125.71 439.21 1125.71 441.26 1125.71 443.31 C 1124.16 443.32 1122.62 443.33 1121.07 443.34 C 1121.07 441.27 1121.07 439.20 1121.07 437.13 Z" fill="#ffffff" />
<path d="M 1016.93 437.15 C 1018.67 437.14 1020.42 437.14 1022.17 437.14 C 1022.18 440.96 1022.18 444.78 1022.17 448.59 C 1020.42 448.59 1018.67 448.59 1016.93 448.59 C 1016.92 444.77 1016.92 440.96 1016.93 437.15 Z" fill="#ffffff" />
<path d="M 1142.74 437.13 C 1144.48 437.14 1146.23 437.14 1147.97 437.15 C 1147.97 440.96 1147.97 444.78 1147.96 448.59 C 1146.22 448.59 1144.47 448.58 1142.73 448.58 C 1142.72 444.76 1142.72 440.95 1142.74 437.13 Z" fill="#ffffff" />
<path d="M 782.62 439.72 C 783.29 441.61 783.96 443.51 784.63 445.41 C 783.32 445.41 782.00 445.41 780.68 445.41 C 781.33 443.51 781.97 441.61 782.62 439.72 Z" fill="#ffffff" />
<path d="M 814.08 439.72 C 814.74 441.61 815.41 443.51 816.08 445.40 C 814.76 445.40 813.44 445.41 812.13 445.41 C 812.78 443.51 813.43 441.62 814.08 439.72 Z" fill="#ffffff" />
<path d="M 1055.99 439.72 C 1056.66 441.62 1057.33 443.51 1058.00 445.41 C 1056.68 445.41 1055.36 445.41 1054.05 445.41 C 1054.70 443.51 1055.34 441.62 1055.99 439.72 Z" fill="#ffffff" />
<path d="M 1107.87 439.72 C 1108.54 441.62 1109.20 443.52 1109.87 445.41 C 1108.55 445.41 1107.24 445.41 1105.92 445.40 C 1106.57 443.51 1107.22 441.62 1107.87 439.72 Z" fill="#ffffff" />
<path d="M 844.11 441.03 C 845.14 441.04 846.16 441.04 847.19 441.04 C 847.19 442.09 847.19 443.14 847.18 444.18 C 846.16 444.19 845.14 444.19 844.12 444.19 C 844.12 443.14 844.12 442.09 844.11 441.03 Z" fill="#545454" />
</svg>